<?xml version="1.0" encoding="UTF-8"?>
<svg width="240px" height="40px" viewBox="0 0 240 40" version="1.1" xmlns="http://www.w3.org/2000/svg" xmlns:xlink="http://www.w3.org/1999/xlink">
    <!-- Generator: Sketch 48.1 (47250) - http://www.bohemiancoding.com/sketch -->
    <title>African Bank Logo</title>
    <desc>Created with Sketch.</desc>
    <defs>
        <polygon id="path-1" points="0 39.210942 239.616715 39.210942 239.616715 0 0 0"></polygon>
    </defs>
    <g id="Login-|-3-fields" stroke="none" stroke-width="1" fill="none" fill-rule="evenodd" transform="translate(-1061.000000, -200.000000)">
        <g id="Group-4" transform="translate(1029.000000, 200.000000)">
            <g id="African-Bank-Logo" transform="translate(32.000000, 0.000000)">
                <mask id="mask-2" fill="white">
                    <use xlink:href="#path-1"></use>
                </mask>
                <g id="Clip-6"></g>
                <path d="M73.9042785,31.8499941 L73.9042785,16.7624917 L71.0834613,16.7624917 L71.0834613,13.2348686 L73.9042785,13.2348686 L73.9042785,11.7630369 C73.9042785,7.86201637 76.2170091,5.99994231 80.0023774,5.99994231 C81.1500802,5.99994231 82.1874677,6.17084885 83.2817807,6.51196004 L83.2817807,10.1732903 C82.4979061,9.95114695 81.7051921,9.7107548 80.8827779,9.7107548 C79.1216234,9.7107548 78.4466498,10.3010316 78.4466498,12.0908125 L78.4466498,13.2348686 L82.6598432,13.2348686 L82.6598432,16.7624917 L78.4466498,16.7624917 L78.4466498,31.8499941 L73.9042785,31.8499941 Z" id="Fill-1" fill="#002B60" mask="url(#mask-2)"></path>
                <path d="M85.1824203,31.8499941 L85.1824203,13.2348686 L89.6901413,13.2348686 L89.6901413,14.4842059 C90.7561684,13.5500104 92.1004585,12.9435905 93.7735729,12.9435905 C94.4340501,12.9435905 95.0648269,13.0899314 95.6966645,13.260487 L95.6966645,17.4275182 C94.8990005,17.2274838 94.2385234,17.0544717 93.4062091,17.0544717 C91.6206579,17.0544717 90.5928169,17.6240431 89.7262059,18.3224086 L89.7262059,31.8499941 L85.1824203,31.8499941 Z" id="Fill-3" fill="#002B60" mask="url(#mask-2)"></path>
                <path d="M98.7745657,31.8500292 L103.318351,31.8500292 L103.318351,13.2345527 L98.7745657,13.2345527 L98.7745657,31.8500292 Z M101.066082,11.3282606 C99.604405,11.3282606 98.5274171,10.1856083 98.5274171,8.84257067 C98.5274171,7.49988402 99.604405,6.35723172 101.066082,6.35723172 C102.488158,6.35723172 103.603686,7.4949709 103.603686,8.84257067 C103.603686,10.1891176 102.488158,11.3282606 101.066082,11.3282606 L101.066082,11.3282606 Z" id="Fill-5" fill="#002B60" mask="url(#mask-2)"></path>
                <path d="M115.970165,32.1402896 C110.218216,32.1402896 106.975938,28.5119474 106.975938,22.8509755 C106.975938,17.4367127 109.83282,12.9443626 115.823078,12.9443626 C117.686416,12.9443626 118.923573,13.2008978 120.640884,13.9213724 L120.640884,17.7644883 C119.044495,17.0292744 117.966093,16.6548241 116.189028,16.6548241 C113.028072,16.6548241 111.629685,18.7586941 111.629685,22.8509755 C111.629685,26.6316246 113.3919,28.3940324 116.409305,28.3940324 C118.370582,28.3940324 119.269722,28.1108259 120.970062,27.1446951 L120.970062,31.0797566 C119.305433,31.8507662 117.829967,32.1402896 115.970165,32.1402896" id="Fill-7" fill="#002B60" mask="url(#mask-2)"></path>
                <path d="M130.000036,28.5400926 C131.161174,28.5400926 132.131736,28.1031755 132.726802,27.5778221 L132.726802,24.0231768 C132.4298,24.0119468 132.056425,23.9972074 131.758715,23.9972074 C128.723632,23.9972074 127.491779,24.8194538 127.491779,26.4141136 C127.491779,27.7641699 128.341772,28.5400926 130.000036,28.5400926 M136.738458,32.1403598 C135.256981,32.1403598 134.147465,31.516393 133.514213,30.456211 C132.5189,31.381633 130.860636,32.1403598 128.937545,32.1403598 C125.384475,32.1403598 122.911221,30.1087829 122.911221,26.7050407 C122.911221,22.6555736 126.394991,20.8331555 131.391351,20.8331555 C131.820237,20.8331555 132.307463,20.852457 132.726802,20.8770226 L132.726802,20.1614612 C132.726802,17.8073728 131.850998,16.7271874 129.485585,16.7271874 C127.622955,16.7271874 126.236589,17.2265714 124.558525,17.9730153 L124.558525,14.0646251 C126.372715,13.3234452 128.181956,12.9440818 130.145709,12.9440818 C134.433153,12.9440818 137.270234,15.1241052 137.270234,19.5441622 L137.270234,27.3591881 C137.270234,28.2625011 137.602948,28.4306001 138.166899,28.4306001 C138.316461,28.4306001 138.468498,28.4123513 138.61806,28.3902423 L139.084425,28.3105795 L139.248837,28.2835573 L139.248837,31.6013199 C138.332372,31.9806832 137.794585,32.1403598 136.738458,32.1403598" id="Fill-8" fill="#002B60" mask="url(#mask-2)"></path>
                <path d="M142.070609,31.8499941 L142.070609,13.2348686 L146.541205,13.2348686 L146.541205,14.270485 C147.563742,13.6286204 149.09083,12.9435905 151.063776,12.9435905 C155.733434,12.9435905 157.347148,15.9069062 157.347148,19.6517597 L157.347148,31.8499941 L152.803362,31.8499941 L152.803362,20.2346667 C152.803362,17.8816312 152.161624,16.7280998 149.819547,16.7280998 C148.570368,16.7280998 147.420544,17.2471363 146.614041,17.7665237 L146.614041,31.8499941 L142.070609,31.8499941 Z" id="Fill-9" fill="#002B60" mask="url(#mask-2)"></path>
                <path d="M192.339989,28.5400926 C193.501128,28.5400926 194.47169,28.1031755 195.06817,27.5778221 L195.06817,24.0231768 C194.769753,24.0119468 194.398854,23.9972074 194.098669,23.9972074 C191.065,23.9972074 189.831732,24.8194538 189.831732,26.4141136 C189.831732,27.7641699 190.683846,28.5400926 192.339989,28.5400926 M199.079826,32.1403598 C197.59941,32.1403598 196.487418,31.516393 195.85558,30.456211 C194.858854,31.381633 193.202004,32.1403598 191.276437,32.1403598 C187.724428,32.1403598 185.251175,30.1087829 185.251175,26.7050407 C185.251175,22.6555736 188.736358,20.8331555 193.731305,20.8331555 C194.160191,20.8331555 194.648477,20.852457 195.06817,20.8770226 L195.06817,20.1614612 C195.06817,17.8073728 194.192366,16.7271874 191.826599,16.7271874 C189.962908,16.7271874 188.576543,17.2265714 186.899539,17.9730153 L186.899539,14.0646251 C188.712669,13.3234452 190.524384,12.9440818 192.485662,12.9440818 C196.77452,12.9440818 199.611248,15.1241052 199.611248,19.5441622 L199.611248,27.3591881 C199.611248,28.2625011 199.942901,28.4306001 200.506853,28.4306001 C200.656415,28.4306001 200.808452,28.4123513 200.958367,28.3902423 L201.426853,28.3105795 L201.58879,28.2835573 L201.58879,31.6013199 C200.67374,31.9806832 200.135953,32.1403598 199.079826,32.1403598" id="Fill-10" fill="#002B60" mask="url(#mask-2)"></path>
                <path d="M204.411941,31.8499941 L204.411941,13.2348686 L208.882537,13.2348686 L208.882537,14.270485 C209.904014,13.6286204 211.431455,12.9435905 213.405108,12.9435905 C218.073705,12.9435905 219.687066,15.9069062 219.687066,19.6517597 L219.687066,31.8499941 L215.144694,31.8499941 L215.144694,20.2346667 C215.144694,17.8816312 214.501896,16.7280998 212.158404,16.7280998 C210.912054,16.7280998 209.760462,17.2471363 208.954313,17.7665237 L208.954313,31.8499941 L204.411941,31.8499941 Z" id="Fill-11" fill="#002B60" mask="url(#mask-2)"></path>
                <path d="M237.908986,31.9953173 C236.00923,31.9953173 234.60554,31.419429 233.066076,29.3559168 L228.736557,23.6963487 L228.736557,31.8503802 L224.191711,31.8503802 L224.191711,6.29125548 L228.736557,6.29125548 L228.736557,20.2483884 L234.448553,13.2349037 L239.616751,13.2349037 L232.555161,21.6612625 L237.035657,27.35803 C237.577687,28.064818 237.943636,28.2859086 238.568049,28.2859086 C238.700286,28.2859086 239.431124,28.1911555 239.431124,28.1911555 L239.431124,31.7422914 C238.911723,31.8970548 238.455612,31.9953173 237.908986,31.9953173" id="Fill-12" fill="#002B60" mask="url(#mask-2)"></path>
                <path d="M172.916517,16.6597723 C175.785774,16.6597723 177.031063,15.3834129 177.031063,13.1065307 C177.031063,11.1570733 175.831385,9.79578694 172.957532,9.79578694 L170.602726,9.79578694 L170.602726,16.6597723 L172.916517,16.6597723 Z M173.039207,28.0554129 C175.995797,28.0554129 177.483638,26.6930737 177.483638,24.172992 C177.483638,21.5574552 176.102223,20.128438 173.123358,20.128438 L170.602726,20.128438 L170.602726,28.0554129 L173.039207,28.0554129 Z M173.656195,31.8493975 L165.913267,31.8493975 L165.913267,6.00074947 L173.409046,6.00074947 C178.795753,6.00074947 181.720168,8.63137652 181.720168,12.6559271 C181.720168,15.2261929 180.335217,17.0868632 178.581841,17.996493 L178.0536,18.271628 L178.61048,18.4839451 C180.884318,19.3528662 182.54435,21.2970597 182.54435,24.2958201 C182.54435,28.8864327 179.132003,31.8493975 173.656195,31.8493975 L173.656195,31.8493975 Z" id="Fill-13" fill="#002B60" mask="url(#mask-2)"></path>
                <path d="M53.9069547,31.8499941 L49.1061204,31.8499941 L57.7913239,5.99994231 L63.0160939,5.99994231 L71.4106591,31.8499941 L66.2799399,31.8499941 L64.7425981,26.5782119 L55.5132435,26.5782119 L53.9069547,31.8499941 Z M63.5987846,22.6505201 L60.229927,11.0990633 L56.7104467,22.6505201 L63.5987846,22.6505201 Z" id="Fill-14" fill="#002B60" mask="url(#mask-2)"></path>
                <path d="M20.131965,39.2107665 C13.5678548,39.2107665 9.16655973,37.8951021 6.40867881,36.5843508 C5.03115265,35.9284487 4.06271216,35.2743013 3.44077466,34.7861473 C2.82590864,34.3036083 2.54658481,33.9782893 2.54658481,33.9782893 C1.42363227,32.7717664 0.888320514,31.8547669 0.399680588,30.2874803 C0.399680588,30.2874803 0.255068627,29.884955 0.141217646,29.1139455 C0.0248916431,28.331004 -0.0613805291,27.1722086 0.056006197,25.6624758 C0.289718926,22.6356403 1.34089584,18.1920705 4.62277413,12.5507511 C8.64574452,5.63552888 12.7701908,2.50060473 15.3498702,1.10983965 C9.74889689,6.8824096 8.04714293,20.0713405 9.61913506,25.4192761 C10.1890971,27.1244811 11.0313115,27.7979301 11.1600126,27.8940869 C11.35165,28.1050003 13.7308526,30.5794602 20.131965,30.5794602 C26.7816401,30.5794602 29.0904815,27.9098791 29.1162924,27.8793476 C29.7025189,27.2508186 29.9818427,26.7682796 30.2381842,25.9519991 C30.249145,25.9200638 31.080045,23.5719414 29.3687446,19.4270193 C34.5995254,27.046924 36.8567448,37.7515687 23.6390702,39.0784631 C22.5458179,39.1654956 21.3772543,39.2107665 20.131965,39.2107665" id="Fill-15" fill="#002B60" mask="url(#mask-2)"></path>
                <path d="M19.0090831,10.5092077 C18.9694828,10.5165774 15.4881885,11.1658116 12.1642349,16.8818806 C11.5136578,18.0003183 11.034918,19.0275121 10.6862935,19.9567945 C10.8086303,11.2910963 15.1148139,-0.890293191 22.2824756,0.0512719599 C22.2824756,0.0512719599 22.6993399,0.128829134 23.4287641,0.41589596 C24.1670276,0.706823097 25.2220938,1.21147114 26.4847083,2.06810943 C29.0074622,3.78278976 32.3589946,6.90788766 35.6398122,12.549207 C38.9216905,18.1929829 39.9742817,22.635149 40.2104695,25.6581241 C40.3267955,27.1692607 40.2412304,28.3280562 40.125258,29.108541 C40.0099927,29.8809543 39.8667951,30.2820758 39.8667951,30.2820758 C39.3767408,31.8493624 38.8439041,32.7674148 37.7209516,33.9742886 C37.7209516,33.9742886 37.6198293,34.0907999 37.4119275,34.2845173 C37.1966006,34.4834989 36.8691907,34.7635469 36.415201,35.0909716 C35.6062226,35.6728258 34.3945229,36.4045304 32.700194,37.0895603 C35.3976137,34.2687251 35.6857769,30.2217146 34.4910487,26.1160975 C32.4862814,19.2264937 26.1717949,11.6606334 21.5887625,10.5485127 C21.4416755,10.513068 20.9901609,10.4551633 20.9901609,10.4551633 C20.2851334,10.3225089 19.758661,10.3411086 19.0090831,10.5092077 Z" id="Fill-16" fill="#89BC47" mask="url(#mask-2)"></path>
            </g>
        </g>
    </g>
</svg>