<svg enable-background="new 0 0 60 60" height="512" viewBox="0 0 60 60" width="512" xmlns="http://www.w3.org/2000/svg"><path d="m13 32c-2.206 0-4-1.794-4-4s1.794-4 4-4 4 1.794 4 4-1.794 4-4 4zm0-6c-1.103 0-2 .897-2 2s.897 2 2 2 2-.897 2-2-.897-2-2-2z"/><path d="m17 12h-4c-.552 0-1-.448-1-1v-4c0-.552.448-1 1-1h4c.552 0 1 .448 1 1v4c0 .552-.448 1-1 1zm-3-2h2v-2h-2z"/><path d="m33 16h-4c-.552 0-1-.448-1-1v-4c0-.552.448-1 1-1h4c.552 0 1 .448 1 1v4c0 .552-.448 1-1 1zm-3-2h2v-2h-2z"/><path d="m20 22c-.552 0-1-.448-1-1 0-1.654 1.346-3 3-3 .552 0 1 .448 1 1s-.448 1-1 1-1 .449-1 1c0 .552-.448 1-1 1z"/><path d="m24 14c-.552 0-1-.448-1-1 0-.551-.448-1-1-1s-1-.448-1-1 .448-1 1-1c1.654 0 3 1.346 3 3 0 .552-.448 1-1 1z"/><path d="m10 18c-.552 0-1-.448-1-1 0-.551-.448-1-1-1s-1-.448-1-1 .448-1 1-1c1.654 0 3 1.346 3 3 0 .552-.448 1-1 1z"/><path d="m37 55c-2.206 0-4-1.794-4-4s1.794-4 4-4 4 1.794 4 4-1.794 4-4 4zm0-6c-1.103 0-2 .897-2 2s.897 2 2 2 2-.897 2-2-.897-2-2-2z"/><path d="m30 38c-2.206 0-4-1.794-4-4s1.794-4 4-4 4 1.794 4 4-1.794 4-4 4zm0-6c-1.103 0-2 .897-2 2s.897 2 2 2 2-.897 2-2-.897-2-2-2z"/><path d="m44 40h-4c-.552 0-1-.448-1-1v-4c0-.552.448-1 1-1h4c.552 0 1 .448 1 1v4c0 .552-.448 1-1 1zm-3-2h2v-2h-2z"/><path d="m46 52c-.552 0-1-.448-1-1 0-1.654 1.346-3 3-3 .552 0 1 .448 1 1s-.448 1-1 1-1 .449-1 1c0 .552-.448 1-1 1z"/><path d="m51 44c-.552 0-1-.448-1-1 0-.551-.448-1-1-1s-1-.448-1-1 .448-1 1-1c1.654 0 3 1.346 3 3 0 .552-.448 1-1 1z"/><path d="m39 30c-.552 0-1-.448-1-1 0-.551-.448-1-1-1s-1-.448-1-1 .448-1 1-1c1.654 0 3 1.346 3 3 0 .552-.448 1-1 1z"/><path d="m29 47c-.552 0-1-.448-1-1 0-.551-.448-1-1-1s-1-.448-1-1 .448-1 1-1c1.654 0 3 1.346 3 3 0 .552-.448 1-1 1z"/><path d="m39 60c-11.579 0-21-9.42-21-21s9.421-21 21-21c1.831 0 3.7.258 5.555.766.285.078.52.277.644.545s.123.577-.003.844c-.13.278-.196.562-.196.845 0 .84.539 1.594 1.341 1.876.409.144.678.534.668.968 0 .016-.006.112-.007.128-.002 3.239 2.175 6.028 5.293 6.81.4.1.698.436.749.846.312 2.492 2.443 4.372 4.956 4.372.254 0 .501-.026.745-.062.269-.042.545.032.76.199.216.167.354.416.381.688.076.726.114 1.458.114 2.175 0 11.58-9.421 21-21 21zm0-40c-10.477 0-19 8.523-19 19s8.523 19 19 19 19-8.523 19-19c0-.331-.009-.665-.027-1-3.282-.012-6.093-2.313-6.798-5.462-3.523-1.161-5.976-4.365-6.164-8.08-1.226-.704-2.011-2.017-2.011-3.458 0-.184.013-.368.039-.549-1.355-.3-2.709-.451-4.039-.451z"/><path d="m19.096 41.904c-.031 0-.063-.001-.094-.004-10.833-1.025-19.002-10.009-19.002-20.9 0-11.58 9.421-21 21-21 10.896 0 19.881 8.174 20.9 19.013.028.298-.079.592-.291.803s-.507.316-.805.286c-.692-.07-1.265-.102-1.804-.102-10.477 0-19 8.523-19 19 0 .565.03 1.157.092 1.81.028.297-.078.59-.289.801-.188.188-.443.293-.707.293zm1.904-39.904c-10.477 0-19 8.523-19 19 0 9.456 6.805 17.323 16.016 18.761-.011-.259-.016-.512-.016-.761 0-11.58 9.421-21 21-21 .247 0 .498.006.761.018-1.437-9.212-9.303-16.018-18.761-16.018z"/></svg>