<svg xmlns="http://www.w3.org/2000/svg" width="48" height="48" viewBox="0 0 48 48"><title>assets</title><rect width="48" height="48" fill="none"/><path d="M38,14H10V34H38V14m2,22H8V12H40V36M17.688,18.8V28.828H15.531V21.234a3.2,3.2,0,0,1-.672.43l-.266.117a2.55,2.55,0,0,1-.562.188,2.423,2.423,0,0,1-.3.07q-.141.023-.281.055V20.266q.422-.125.813-.281t.766-.344a8.253,8.253,0,0,0,1.344-.844h1.313m4.531,8.234h4.156v1.8H19.859v-.75a3.292,3.292,0,0,1,.25-1.344,4.183,4.183,0,0,1,.625-1.078,5.7,5.7,0,0,1,.844-.828q.219-.187.438-.352t.422-.32q.453-.312.766-.578a2.593,2.593,0,0,0,.3-.281l.25-.281a3.148,3.148,0,0,0,.328-.562,1.59,1.59,0,0,0,.109-.609,1.176,1.176,0,0,0-.359-.937,1.552,1.552,0,0,0-1.078-.328,3.625,3.625,0,0,0-2.422,1V19.688a4.866,4.866,0,0,1,1.359-.625,5.548,5.548,0,0,1,1.516-.2,4.456,4.456,0,0,1,1.344.188,2.461,2.461,0,0,1,1,.563,2.242,2.242,0,0,1,.625.875,3.007,3.007,0,0,1,.219,1.156,3.538,3.538,0,0,1-.055.641,3.7,3.7,0,0,1-.148.563,3.439,3.439,0,0,1-.562.953,7.2,7.2,0,0,1-.8.8q-.219.172-.453.344t-.484.344l-.32.234q-.148.109-.3.234-.156.109-.289.219t-.258.219q-.109.125-.2.227t-.164.211a.763.763,0,0,0-.141.406M27.828,28.5V26.625a3.835,3.835,0,0,0,2.3.719,2.128,2.128,0,0,0,1.3-.359,1.2,1.2,0,0,0,.453-1,1.126,1.126,0,0,0-.562-1,3.026,3.026,0,0,0-1.578-.359h-.906V22.969h.844q1.906,0,1.906-1.266,0-1.2-1.469-1.2a3.3,3.3,0,0,0-1.906.641V19.375a5.316,5.316,0,0,1,2.406-.516,3.631,3.631,0,0,1,2.344.672,2.175,2.175,0,0,1,.828,1.75,2.271,2.271,0,0,1-1.953,2.406v.047a2.6,2.6,0,0,1,1.641.75,2.144,2.144,0,0,1,.609,1.531,2.655,2.655,0,0,1-1,2.172A4.3,4.3,0,0,1,30.3,29,5.365,5.365,0,0,1,27.828,28.5Z" fill="#404040"/></svg>